<svg width="40" height="27" viewBox="0 0 40 27" fill="none" xmlns="http://www.w3.org/2000/svg">
<path d="M28.6166 10.4724L18.8607 18.8456C18.8477 18.8567 18.8347 18.8679 18.8233 18.8798C18.5075 19.1864 18.3334 19.5955 18.3334 20.0317C18.3334 20.9285 19.0805 21.6586 20 21.6586C20.4427 21.6586 20.861 21.4902 21.2159 21.1438L29.7934 11.6203C30.0831 11.2985 30.0668 10.8116 29.756 10.5081C29.445 10.2055 28.9486 10.1895 28.6166 10.4724Z" fill="#00D1FF"/>
<path d="M20 0.507812C8.97133 0.507812 0 9.26638 0 20.0316C0 22.051 0.320625 24.0499 0.950547 25.974C1.06125 26.3108 1.38188 26.5396 1.74484 26.5396H38.2552C38.6182 26.5396 38.9388 26.3108 39.0495 25.974C39.6794 24.0499 40 22.0511 40 20.0316C40 9.26638 31.0287 0.507812 20 0.507812ZM35.8334 20.8451H38.2755C38.2112 22.221 38.0227 23.5866 37.6367 24.9126H2.36328C1.97734 23.5866 1.78883 22.221 1.72445 20.8451H4.16664C4.62727 20.8451 5 20.4813 5 20.0316C5 19.582 4.62727 19.2181 4.16664 19.2181H1.70883C1.83234 16.555 2.5432 14.0424 3.73602 11.8045L5.8707 13.0081C6.00258 13.082 6.14578 13.1169 6.28734 13.1169C6.57383 13.1169 6.85539 12.9716 7.00836 12.7102C7.23945 12.3209 7.10273 11.8236 6.70398 11.5988L4.57406 10.3979C6.00555 8.2214 7.90234 6.36991 10.132 4.97259L11.3622 7.05309C11.5152 7.31369 11.7968 7.45981 12.0832 7.45981C12.2248 7.45981 12.368 7.42488 12.4998 7.35098C12.8986 7.12615 13.0353 6.62883 12.8042 6.23958L11.5716 4.1551C13.8642 2.99054 16.4383 2.29653 19.1666 2.17595V4.57525C19.1666 5.02491 19.5393 5.38876 19.9999 5.38876C20.4605 5.38876 20.8333 5.02491 20.8333 4.57525V2.17595C23.5616 2.29653 26.1356 2.99054 28.4282 4.1551L27.1956 6.23958C26.9645 6.62883 27.1012 7.12615 27.5 7.35098C27.6319 7.42488 27.7751 7.45981 27.9166 7.45981C28.2031 7.45981 28.4847 7.31361 28.6377 7.05309L29.8678 4.97259C32.0975 6.36991 33.9943 8.2214 35.4258 10.3979L33.2959 11.5988C32.8971 11.8236 32.7604 12.3209 32.9915 12.7102C33.1445 12.9716 33.4261 13.1169 33.7125 13.1169C33.8541 13.1169 33.9973 13.082 34.1291 13.0081L36.2638 11.8045C37.4566 14.0425 38.1675 16.555 38.291 19.2181H35.8332C35.3726 19.2181 34.9998 19.582 34.9998 20.0316C35 20.4813 35.3727 20.8451 35.8334 20.8451Z" fill="#00D1FF"/>
</svg>
